<svg width="373" height="460" viewBox="0 0 373 460" fill="none" xmlns="http://www.w3.org/2000/svg">
<mask id="path-1-outside-1_233_18" maskUnits="userSpaceOnUse" x="0" y="0" width="373" height="460" fill="black">
<rect fill="white" width="373" height="460"/>
<path d="M365.81 390.972C299.97 309.356 252.284 231.244 241.361 187.121C241.322 186.964 241.268 186.814 241.221 186.661C241.221 186.646 241.216 186.633 241.211 186.618C235.07 166.453 245.339 144.516 245.438 144.306C260.594 112.817 256.974 98.8421 250.667 83.8451C248.69 79.1515 246.988 75.0995 246.522 69.7296C245.084 53.2244 254.056 27.2282 257.631 18.6088C258.57 16.2046 258.528 13.529 257.515 11.1551C256.502 8.78125 254.599 6.89777 252.212 5.90809C249.826 4.91841 247.147 4.90121 244.748 5.86019C242.349 6.81916 240.421 8.67805 239.378 11.0388C238.843 12.322 227.633 39.559 226.68 62.966C211.439 67.852 197.637 76.4119 186.495 87.8893C175.352 76.4112 161.55 67.8509 146.308 62.9651C145.354 39.559 134.144 12.3269 133.609 11.0437C132.596 8.63784 130.67 6.73073 128.252 5.73952C125.834 4.74832 123.121 4.75372 120.708 5.75454C118.294 6.75536 116.375 8.67014 115.371 11.08C114.367 13.4899 114.36 16.1986 115.351 18.6137C118.929 27.238 127.905 53.2342 126.463 69.7395C125.996 75.1034 124.288 79.1564 122.317 83.855C116.01 98.852 112.39 112.826 127.556 144.332C127.662 144.549 137.878 166.59 131.776 186.628C131.751 186.709 131.737 186.791 131.714 186.872C131.692 186.952 131.658 187.041 131.636 187.13C120.713 231.253 73.0267 309.367 7.18737 390.982C6.34589 392.025 5.7257 393.228 5.36471 394.518C5.00372 395.808 4.90944 397.158 5.08754 398.485C5.26565 399.813 5.71248 401.09 6.40077 402.24C7.08905 403.39 8.0045 404.387 9.09124 405.172C10.3179 406.061 39.5965 427.032 80.6567 441.567C105.98 450.529 130.215 455.001 152.853 455C179.766 455 204.423 448.677 225.937 436.065L225.947 436.06H225.956C295.457 395.122 355.515 406.723 356.088 406.841C358.084 407.259 360.159 407.05 362.031 406.244C363.903 405.437 365.479 404.072 366.544 402.336C367.609 400.6 368.111 398.578 367.98 396.546C367.849 394.515 367.092 392.573 365.813 390.988L365.81 390.972ZM215.928 419.03C181.128 439.427 137.992 440.801 87.7165 423.11C67.3118 415.804 47.7482 406.34 29.3597 394.879C94.2214 313.22 139.377 237.881 150.785 191.997C158.989 164.457 145.916 136.899 145.36 135.751C132.852 109.765 136.245 101.696 140.54 91.4863C141.636 88.8823 142.796 86.1026 143.794 82.9972C157.617 88.2017 169.685 97.204 178.604 108.965C179.524 110.184 180.715 111.173 182.083 111.854C183.452 112.534 184.959 112.889 186.488 112.889C188.017 112.889 189.525 112.534 190.893 111.854C192.261 111.173 193.452 110.184 194.373 108.965C203.292 97.2036 215.36 88.201 229.184 82.9962C230.181 86.1046 231.342 88.8833 232.436 91.4853C236.732 101.699 240.124 109.765 227.625 135.733C227.06 136.903 213.869 164.696 222.294 192.357L222.313 192.412C233.438 236.535 275.493 307.637 336.142 385.371C310.022 385.057 265.346 389.924 215.928 419.03Z"/>
<path d="M87.6867 423.11C137.962 440.801 181.098 439.427 215.899 419.03C265.316 389.924 309.993 385.057 336.112 385.371C275.463 307.637 233.408 236.535 222.283 192.412L222.264 192.357C213.84 164.696 227.03 136.903 227.595 135.733C240.095 109.765 236.702 101.699 232.406 91.4853C231.312 88.8833 230.152 86.1046 229.154 82.9962C215.33 88.201 203.262 97.2036 194.343 108.965C193.423 110.184 192.231 111.173 190.863 111.854C189.495 112.534 187.987 112.889 186.458 112.889C184.93 112.889 183.422 112.534 182.054 111.854C180.685 111.173 179.494 110.184 178.574 108.965C169.655 97.204 157.587 88.2017 143.764 82.9972C142.766 86.1026 141.606 88.8823 140.511 91.4863C136.216 101.696 132.822 109.765 145.331 135.751C145.886 136.899 158.96 164.457 150.755 191.997C139.347 237.881 94.1917 313.22 29.33 394.879C47.7184 406.34 67.282 415.804 87.6867 423.11Z"/>
</mask>
<path d="M365.81 390.972C299.97 309.356 252.284 231.244 241.361 187.121C241.322 186.964 241.268 186.814 241.221 186.661C241.221 186.646 241.216 186.633 241.211 186.618C235.07 166.453 245.339 144.516 245.438 144.306C260.594 112.817 256.974 98.8421 250.667 83.8451C248.69 79.1515 246.988 75.0995 246.522 69.7296C245.084 53.2244 254.056 27.2282 257.631 18.6088C258.57 16.2046 258.528 13.529 257.515 11.1551C256.502 8.78125 254.599 6.89777 252.212 5.90809C249.826 4.91841 247.147 4.90121 244.748 5.86019C242.349 6.81916 240.421 8.67805 239.378 11.0388C238.843 12.322 227.633 39.559 226.68 62.966C211.439 67.852 197.637 76.4119 186.495 87.8893C175.352 76.4112 161.55 67.8509 146.308 62.9651C145.354 39.559 134.144 12.3269 133.609 11.0437C132.596 8.63784 130.67 6.73073 128.252 5.73952C125.834 4.74832 123.121 4.75372 120.708 5.75454C118.294 6.75536 116.375 8.67014 115.371 11.08C114.367 13.4899 114.36 16.1986 115.351 18.6137C118.929 27.238 127.905 53.2342 126.463 69.7395C125.996 75.1034 124.288 79.1564 122.317 83.855C116.01 98.852 112.39 112.826 127.556 144.332C127.662 144.549 137.878 166.59 131.776 186.628C131.751 186.709 131.737 186.791 131.714 186.872C131.692 186.952 131.658 187.041 131.636 187.13C120.713 231.253 73.0267 309.367 7.18737 390.982C6.34589 392.025 5.7257 393.228 5.36471 394.518C5.00372 395.808 4.90944 397.158 5.08754 398.485C5.26565 399.813 5.71248 401.09 6.40077 402.24C7.08905 403.39 8.0045 404.387 9.09124 405.172C10.3179 406.061 39.5965 427.032 80.6567 441.567C105.98 450.529 130.215 455.001 152.853 455C179.766 455 204.423 448.677 225.937 436.065L225.947 436.06H225.956C295.457 395.122 355.515 406.723 356.088 406.841C358.084 407.259 360.159 407.05 362.031 406.244C363.903 405.437 365.479 404.072 366.544 402.336C367.609 400.6 368.111 398.578 367.98 396.546C367.849 394.515 367.092 392.573 365.813 390.988L365.81 390.972ZM215.928 419.03C181.128 439.427 137.992 440.801 87.7165 423.11C67.3118 415.804 47.7482 406.34 29.3597 394.879C94.2214 313.22 139.377 237.881 150.785 191.997C158.989 164.457 145.916 136.899 145.36 135.751C132.852 109.765 136.245 101.696 140.54 91.4863C141.636 88.8823 142.796 86.1026 143.794 82.9972C157.617 88.2017 169.685 97.204 178.604 108.965C179.524 110.184 180.715 111.173 182.083 111.854C183.452 112.534 184.959 112.889 186.488 112.889C188.017 112.889 189.525 112.534 190.893 111.854C192.261 111.173 193.452 110.184 194.373 108.965C203.292 97.2036 215.36 88.201 229.184 82.9962C230.181 86.1046 231.342 88.8833 232.436 91.4853C236.732 101.699 240.124 109.765 227.625 135.733C227.06 136.903 213.869 164.696 222.294 192.357L222.313 192.412C233.438 236.535 275.493 307.637 336.142 385.371C310.022 385.057 265.346 389.924 215.928 419.03Z" fill="#FF0091"/>
<path d="M87.6867 423.11C137.962 440.801 181.098 439.427 215.899 419.03C265.316 389.924 309.993 385.057 336.112 385.371C275.463 307.637 233.408 236.535 222.283 192.412L222.264 192.357C213.84 164.696 227.03 136.903 227.595 135.733C240.095 109.765 236.702 101.699 232.406 91.4853C231.312 88.8833 230.152 86.1046 229.154 82.9962C215.33 88.201 203.262 97.2036 194.343 108.965C193.423 110.184 192.231 111.173 190.863 111.854C189.495 112.534 187.987 112.889 186.458 112.889C184.93 112.889 183.422 112.534 182.054 111.854C180.685 111.173 179.494 110.184 178.574 108.965C169.655 97.204 157.587 88.2017 143.764 82.9972C142.766 86.1026 141.606 88.8823 140.511 91.4863C136.216 101.696 132.822 109.765 145.331 135.751C145.886 136.899 158.96 164.457 150.755 191.997C139.347 237.881 94.1917 313.22 29.33 394.879C47.7184 406.34 67.282 415.804 87.6867 423.11Z" fill="white" fill-opacity="0.5"/>
<path d="M365.78 390.972L368.244 390.546L368.133 389.907L367.726 389.402L365.78 390.972ZM241.331 187.121L238.903 187.718L238.904 187.722L241.331 187.121ZM241.192 186.661H238.692V187.032L238.799 187.388L241.192 186.661ZM241.181 186.618L238.789 187.346L238.799 187.379L238.81 187.411L241.181 186.618ZM245.409 144.306L243.156 143.222L243.15 143.234L245.409 144.306ZM250.638 83.8451L252.942 82.8761L252.942 82.8747L250.638 83.8451ZM246.492 69.7296L248.983 69.5132L248.983 69.5126L246.492 69.7296ZM257.601 18.6088L259.911 19.5667L259.921 19.5423L259.93 19.5178L257.601 18.6088ZM257.485 11.1551L259.785 10.1741L259.785 10.1741L257.485 11.1551ZM252.183 5.90809L251.225 8.21737L251.225 8.21737L252.183 5.90809ZM239.348 11.0388L237.062 10.0282L237.051 10.0525L237.041 10.0771L239.348 11.0388ZM226.65 62.966L227.414 65.3467L229.077 64.8134L229.148 63.0677L226.65 62.966ZM186.465 87.8893L184.671 89.6306L186.465 91.4785L188.259 89.6307L186.465 87.8893ZM146.278 62.9651L143.78 63.0669L143.852 64.8124L145.515 65.3457L146.278 62.9651ZM133.579 11.0437L135.887 10.082L135.883 10.0732L133.579 11.0437ZM128.222 5.73952L127.274 8.05269L127.274 8.05269L128.222 5.73952ZM120.678 5.75454L119.72 3.44517L119.72 3.44517L120.678 5.75454ZM115.321 18.6137L113.009 19.5628L113.012 19.5718L115.321 18.6137ZM126.433 69.7395L123.942 69.5219L123.942 69.5229L126.433 69.7395ZM122.313 83.7939L120.008 82.8268L120.007 82.827L122.313 83.7939ZM122.287 83.855L124.592 84.8242L124.593 84.8219L122.287 83.855ZM127.526 144.332L125.273 145.416L125.279 145.426L127.526 144.332ZM131.746 186.628L134.137 187.358L134.137 187.356L131.746 186.628ZM131.607 187.13L134.033 187.731L134.035 187.725L131.607 187.13ZM7.15761 390.982L9.10333 392.552L9.10339 392.551L7.15761 390.982ZM9.06147 405.172L10.5278 403.147L10.5254 403.146L9.06147 405.172ZM80.6269 441.567L79.7927 443.923L79.7928 443.923L80.6269 441.567ZM152.823 455L152.823 452.5L152.823 452.5L152.823 455ZM225.907 436.065L227.171 438.222L227.189 438.212L227.207 438.201L225.907 436.065ZM225.917 436.06V433.56H225.216L224.617 433.924L225.917 436.06ZM225.926 436.06V438.56H226.607L227.195 438.214L225.926 436.06ZM356.058 406.841L356.57 404.394L356.564 404.393L356.058 406.841ZM365.783 390.988L363.319 391.414L363.43 392.053L363.837 392.557L365.783 390.988ZM365.78 390.972L367.726 389.402C334.861 348.662 306.545 308.82 285.095 273.684C263.613 238.495 249.125 208.201 243.758 186.521L241.331 187.121L238.904 187.722C244.46 210.164 259.276 240.987 280.828 276.289C302.411 311.644 330.859 351.665 363.834 392.542L365.78 390.972ZM241.331 187.121L243.759 186.525C243.72 186.365 243.676 186.225 243.647 186.132C243.608 186.009 243.602 185.993 243.584 185.935L241.192 186.661L238.799 187.388C238.817 187.446 238.834 187.5 238.848 187.542C238.864 187.591 238.872 187.615 238.882 187.648C238.901 187.707 238.904 187.721 238.903 187.718L241.331 187.121ZM241.192 186.661H243.692C243.692 186.33 243.627 186.073 243.59 185.946C243.572 185.883 243.555 185.833 243.549 185.817C243.536 185.778 243.55 185.82 243.552 185.825L241.181 186.618L238.81 187.411C238.814 187.424 238.831 187.472 238.82 187.441C238.817 187.432 238.803 187.389 238.786 187.333C238.754 187.22 238.692 186.978 238.692 186.661H241.192ZM241.181 186.618L243.572 185.89C240.68 176.391 241.629 166.351 243.393 158.529C244.271 154.64 245.338 151.353 246.19 149.031C247.042 146.708 247.672 145.368 247.667 145.378L245.409 144.306L243.15 143.234C243.051 143.443 240.381 149.161 238.516 157.429C236.657 165.669 235.541 176.68 238.789 187.346L241.181 186.618ZM245.409 144.306L247.661 145.39C255.327 129.463 258.359 117.734 258.571 107.945C258.783 98.1154 256.142 90.485 252.942 82.8761L250.638 83.8451L248.333 84.8142C251.44 92.2023 253.762 99.058 253.572 107.837C253.381 116.658 250.645 127.661 243.156 143.222L245.409 144.306ZM250.638 83.8451L252.942 82.8747C250.956 78.1608 249.411 74.4431 248.983 69.5132L246.492 69.7296L244.001 69.946C244.506 75.7558 246.365 80.1422 248.334 84.8156L250.638 83.8451ZM246.492 69.7296L248.983 69.5126C248.302 61.7049 250.091 51.4233 252.586 41.842C255.065 32.321 258.164 23.7765 259.911 19.5667L257.601 18.6088L255.292 17.6509C253.463 22.0604 250.288 30.8238 247.747 40.582C245.222 50.2799 243.244 61.2491 244.001 69.9467L246.492 69.7296ZM257.601 18.6088L259.93 19.5178C261.107 16.504 261.054 13.1498 259.785 10.1741L257.485 11.1551L255.186 12.1362C255.942 13.9082 255.973 15.9052 255.273 17.6998L257.601 18.6088ZM257.485 11.1551L259.785 10.1741C258.515 7.19839 256.13 4.83855 253.14 3.59881L252.183 5.90809L251.225 8.21737C253.008 8.95699 254.43 10.3641 255.186 12.1362L257.485 11.1551ZM252.183 5.90809L253.14 3.59881C250.151 2.35909 246.795 2.33756 243.79 3.5388L244.718 5.86019L245.646 8.18157C247.439 7.46487 249.442 7.47773 251.225 8.21737L252.183 5.90809ZM244.718 5.86019L243.79 3.5388C240.785 4.74009 238.369 7.06913 237.062 10.0282L239.348 11.0388L241.635 12.0493C242.414 10.287 243.853 8.89823 245.646 8.18157L244.718 5.86019ZM239.348 11.0388L237.041 10.0771C236.511 11.3478 225.126 38.9602 224.152 62.8643L226.65 62.966L229.148 63.0677C230.081 40.1577 241.116 13.2962 241.656 12.0004L239.348 11.0388ZM226.65 62.966L225.887 60.5854C210.255 65.5965 196.099 74.3759 184.671 86.1479L186.465 87.8893L188.259 89.6307C199.115 78.4479 212.562 70.1075 227.414 65.3467L226.65 62.966ZM186.465 87.8893L188.259 86.148C176.83 74.3752 162.674 65.5954 147.042 60.5844L146.278 62.9651L145.515 65.3457C160.367 70.1064 173.815 78.4472 184.671 89.6306L186.465 87.8893ZM146.278 62.9651L148.776 62.8633C147.802 38.9601 136.417 11.3526 135.887 10.082L133.579 11.0437L131.272 12.0054C131.812 13.3013 142.847 40.1579 143.78 63.0669L146.278 62.9651ZM133.579 11.0437L135.883 10.0732C134.613 7.05753 132.199 4.66803 129.17 3.42635L128.222 5.73952L127.274 8.05269C129.081 8.79342 130.519 10.2182 131.276 12.0142L133.579 11.0437ZM128.222 5.73952L129.17 3.42635C126.142 2.18473 122.744 2.19149 119.72 3.44517L120.678 5.75454L121.635 8.06391C123.439 7.31594 125.467 7.3119 127.274 8.05269L128.222 5.73952ZM120.678 5.75454L119.72 3.44517C116.696 4.69887 114.292 7.09793 113.034 10.1187L115.341 11.08L117.649 12.0413C118.398 10.2423 119.831 8.81186 121.635 8.06391L120.678 5.75454ZM115.341 11.08L113.034 10.1187C111.775 13.1396 111.766 16.5354 113.009 19.5628L115.321 18.6137L117.634 17.6647C116.894 15.8619 116.9 13.8401 117.649 12.0413L115.341 11.08ZM115.321 18.6137L113.012 19.5718C114.76 23.7842 117.861 32.3298 120.341 41.8514C122.836 51.4333 124.625 61.7145 123.942 69.5219L126.433 69.7395L128.923 69.9571C129.683 61.2592 127.705 50.2897 125.179 40.5911C122.637 30.8322 119.461 22.0676 117.631 17.6557L115.321 18.6137ZM126.433 69.7395L123.942 69.5229C123.516 74.4247 121.977 78.1315 120.008 82.8268L122.313 83.7939L124.618 84.761C126.569 80.1109 128.421 75.7355 128.923 69.9561L126.433 69.7395ZM122.313 83.7939L120.007 82.827L119.982 82.8881L122.287 83.855L124.593 84.8219L124.618 84.7608L122.313 83.7939ZM122.287 83.855L119.983 82.8858C116.783 90.4948 114.141 98.1251 114.355 107.957C114.568 117.748 117.602 129.48 125.274 145.416L127.526 144.332L129.779 143.247C122.284 127.678 119.545 116.671 119.353 107.848C119.163 99.0676 121.485 92.2122 124.592 84.8242L122.287 83.855ZM127.526 144.332L125.279 145.426C125.265 145.399 127.771 150.779 129.525 158.594C131.283 166.431 132.228 176.465 129.354 185.899L131.746 186.628L134.137 187.356C137.367 176.752 136.254 165.747 134.404 157.499C132.548 149.23 129.893 143.481 129.774 143.237L127.526 144.332ZM131.746 186.628L129.355 185.898C129.314 186.03 129.288 186.147 129.278 186.188C129.272 186.218 129.271 186.221 129.269 186.227C129.269 186.229 129.272 186.216 129.278 186.195L131.685 186.872L134.091 187.548C134.109 187.486 134.122 187.433 134.131 187.394C134.14 187.36 134.148 187.322 134.151 187.311C134.155 187.294 134.155 187.294 134.153 187.3C134.151 187.307 134.146 187.328 134.137 187.358L131.746 186.628ZM131.685 186.872L129.278 186.195C129.283 186.178 129.285 186.169 129.283 186.178C129.278 186.194 129.277 186.195 129.265 186.233C129.249 186.282 129.212 186.399 129.178 186.536L131.607 187.13L134.035 187.725C134.028 187.752 134.023 187.771 134.021 187.776C134.02 187.78 134.02 187.779 134.025 187.763C134.028 187.754 134.03 187.747 134.035 187.734C134.039 187.722 134.044 187.706 134.049 187.689C134.06 187.656 134.075 187.606 134.091 187.548L131.685 186.872ZM131.607 187.13L129.18 186.529C123.812 208.21 109.324 238.505 87.8416 273.694C66.3916 308.83 38.0764 348.673 5.21182 389.412L7.15761 390.982L9.10339 392.551C42.0782 351.676 70.5255 311.655 92.1092 276.299C113.661 240.997 128.477 210.173 134.033 187.731L131.607 187.13ZM7.15761 390.982L5.21188 389.412C4.15738 390.719 3.37998 392.227 2.92743 393.844L5.33494 394.518L7.74245 395.192C8.01189 394.229 8.47487 393.33 9.10333 392.552L7.15761 390.982ZM6.371 402.24L4.22605 403.524C5.08875 404.965 6.23599 406.215 7.59753 407.199L9.06147 405.172L10.5254 403.146C9.71348 402.559 9.02982 401.814 8.51595 400.956L6.371 402.24ZM9.06147 405.172L7.59511 407.197C8.91292 408.151 38.4125 429.275 79.7927 443.923L80.6269 441.567L81.4612 439.21C40.7209 424.788 11.6634 403.97 10.5278 403.147L9.06147 405.172ZM80.6269 441.567L79.7928 443.923C105.34 452.965 129.857 457.501 152.823 457.5L152.823 455L152.823 452.5C130.513 452.501 106.562 448.094 81.4611 439.21L80.6269 441.567ZM152.823 455V457.5C180.138 457.5 205.238 451.079 227.171 438.222L225.907 436.065L224.643 433.909C203.548 446.274 179.335 452.5 152.823 452.5V455ZM225.907 436.065L227.207 438.201L227.217 438.195L225.917 436.06L224.617 433.924L224.607 433.93L225.907 436.065ZM225.917 436.06V438.56H225.926V436.06V433.56H225.917V436.06ZM225.926 436.06L227.195 438.214C261.577 417.962 293.599 410.718 317.071 408.544C328.808 407.456 338.406 407.637 345.086 408.094C348.426 408.322 351.035 408.62 352.817 408.861C353.707 408.982 354.391 409.089 354.855 409.166C355.327 409.245 355.56 409.291 355.553 409.29L356.058 406.841L356.564 404.393C355.658 404.206 294.894 392.535 224.657 433.905L225.926 436.06ZM356.058 406.841L355.546 409.288C358.046 409.811 360.646 409.55 362.991 408.54L362.001 406.244L361.012 403.948C359.613 404.55 358.062 404.706 356.57 404.394L356.058 406.841ZM362.001 406.244L362.991 408.54C365.335 407.529 367.311 405.819 368.645 403.643L366.514 402.336L364.383 401.029C363.588 402.325 362.411 403.345 361.012 403.948L362.001 406.244ZM366.514 402.336L368.645 403.643C369.98 401.468 370.609 398.933 370.445 396.385L367.95 396.546L365.455 396.707C365.553 398.223 365.179 399.733 364.383 401.029L366.514 402.336ZM367.95 396.546L370.445 396.385C370.28 393.838 369.331 391.405 367.729 389.418L365.783 390.988L363.837 392.557C364.792 393.741 365.357 395.191 365.455 396.707L367.95 396.546ZM365.783 390.988L368.246 390.562L368.244 390.546L365.78 390.972L363.317 391.398L363.319 391.414L365.783 390.988ZM365.81 390.972L370.737 390.12L370.516 388.842L369.701 387.833L365.81 390.972ZM241.361 187.121L236.505 188.314L236.507 188.323L241.361 187.121ZM241.221 186.661H236.221V187.404L236.437 188.114L241.221 186.661ZM241.211 186.618L236.428 188.074L236.447 188.138L236.468 188.201L241.211 186.618ZM245.438 144.306L240.933 142.137L240.927 142.149L240.922 142.161L245.438 144.306ZM250.667 83.8451L255.276 81.907L255.275 81.9043L250.667 83.8451ZM246.522 69.7296L251.503 69.2968L251.503 69.2956L246.522 69.7296ZM257.631 18.6088L262.25 20.5245L262.27 20.4759L262.289 20.4268L257.631 18.6088ZM239.378 11.0388L234.805 9.01764L234.783 9.0663L234.763 9.11541L239.378 11.0388ZM226.68 62.966L228.206 67.7274L231.534 66.6607L231.676 63.1694L226.68 62.966ZM186.495 87.8893L182.907 91.3719L186.495 95.0676L190.082 91.372L186.495 87.8893ZM146.308 62.9651L141.312 63.1686L141.455 66.6598L144.782 67.7264L146.308 62.9651ZM133.609 11.0437L138.225 9.12035L138.221 9.11153L138.217 9.10273L133.609 11.0437ZM115.351 18.6137L110.725 20.5118L110.729 20.5209L110.733 20.5299L115.351 18.6137ZM126.463 69.7395L121.482 69.3043L121.481 69.3062L126.463 69.7395ZM122.317 83.855L126.926 85.7935L126.928 85.7892L122.317 83.855ZM127.556 144.332L123.051 146.5L123.056 146.511L123.061 146.521L127.556 144.332ZM131.776 186.628L136.558 188.088L136.559 188.084L131.776 186.628ZM131.636 187.13L136.49 188.332L136.493 188.319L131.636 187.13ZM7.18737 390.982L11.0788 394.121L11.0789 394.121L7.18737 390.982ZM9.09124 405.172L12.024 401.123L12.0191 401.119L9.09124 405.172ZM80.6567 441.567L78.9882 446.28L78.9885 446.28L80.6567 441.567ZM152.853 455L152.853 450L152.853 450L152.853 455ZM225.937 436.065L228.465 440.379L228.501 440.358L228.537 440.336L225.937 436.065ZM225.947 436.06V431.06H224.544L223.347 431.789L225.947 436.06ZM225.956 436.06V441.06H227.319L228.493 440.368L225.956 436.06ZM356.088 406.841L357.112 401.947L357.1 401.945L356.088 406.841ZM365.813 390.988L360.886 391.84L361.107 393.118L361.921 394.127L365.813 390.988ZM215.928 419.03L218.457 423.344L218.466 423.338L215.928 419.03ZM87.7165 423.11L86.0311 427.817L86.0439 427.822L86.0568 427.826L87.7165 423.11ZM29.3597 394.879L25.4445 391.769L21.9587 396.157L26.7149 399.122L29.3597 394.879ZM150.785 191.997L145.993 190.569L145.96 190.679L145.933 190.79L150.785 191.997ZM145.36 135.751L140.855 137.919L140.86 137.929L145.36 135.751ZM140.54 91.4863L145.149 93.4251L145.149 93.4248L140.54 91.4863ZM143.794 82.9972L145.555 78.3179L140.639 76.467L139.033 81.4683L143.794 82.9972ZM178.604 108.965L182.594 105.952L182.588 105.944L178.604 108.965ZM194.373 108.965L190.389 105.944L190.383 105.952L194.373 108.965ZM229.184 82.9962L233.945 81.4686L232.34 76.4655L227.422 78.3169L229.184 82.9962ZM232.436 91.4853L227.827 93.4236L227.827 93.4238L232.436 91.4853ZM227.625 135.733L232.127 137.909L232.13 137.902L227.625 135.733ZM222.294 192.357L217.511 193.814L217.534 193.888L217.559 193.962L222.294 192.357ZM222.313 192.412L227.161 191.19L227.112 190.996L227.048 190.807L222.313 192.412ZM336.142 385.371L336.082 390.371L346.482 390.496L340.084 382.295L336.142 385.371ZM215.899 419.03L218.427 423.344L218.436 423.338L215.899 419.03ZM87.6867 423.11L86.0013 427.817L86.0142 427.822L86.0271 427.826L87.6867 423.11ZM29.33 394.879L25.4148 391.769L21.929 396.157L26.6852 399.122L29.33 394.879ZM150.755 191.997L145.963 190.569L145.931 190.679L145.903 190.79L150.755 191.997ZM145.331 135.751L140.825 137.919L140.83 137.929L145.331 135.751ZM140.511 91.4863L145.119 93.4251L145.12 93.4248L140.511 91.4863ZM143.764 82.9972L145.526 78.3179L140.61 76.467L139.003 81.4683L143.764 82.9972ZM178.574 108.965L182.564 105.952L182.558 105.944L178.574 108.965ZM194.343 108.965L190.359 105.944L190.353 105.952L194.343 108.965ZM229.154 82.9962L233.915 81.4686L232.31 76.4655L227.392 78.3169L229.154 82.9962ZM232.406 91.4853L227.797 93.4236L227.797 93.4238L232.406 91.4853ZM227.595 135.733L232.097 137.909L232.101 137.902L227.595 135.733ZM222.264 192.357L217.481 193.814L217.504 193.888L217.529 193.962L222.264 192.357ZM222.283 192.412L227.131 191.19L227.083 190.996L227.019 190.807L222.283 192.412ZM336.112 385.371L336.052 390.371L346.452 390.496L340.054 382.295L336.112 385.371ZM365.81 390.972L369.701 387.833C336.891 347.161 308.642 307.407 287.259 272.381C265.812 237.25 251.487 207.219 246.214 185.92L241.361 187.121L236.507 188.323C242.157 211.145 257.137 242.232 278.724 277.592C300.374 313.056 328.888 353.167 361.918 394.111L365.81 390.972ZM241.361 187.121L246.217 185.929C246.157 185.687 246.094 185.485 246.059 185.374C246.043 185.326 246.022 185.259 246.017 185.243C246.007 185.213 246.005 185.206 246.006 185.209L241.221 186.661L236.437 188.114C236.461 188.193 236.483 188.262 236.498 188.308C236.505 188.329 236.514 188.356 236.518 188.369C236.523 188.386 236.527 188.397 236.53 188.406C236.535 188.424 236.534 188.421 236.53 188.407C236.526 188.393 236.517 188.36 236.505 188.314L241.361 187.121ZM241.221 186.661H246.221C246.221 186.006 246.093 185.498 246.021 185.252C245.986 185.129 245.953 185.033 245.944 185.006C245.919 184.935 245.948 185.017 245.953 185.035L241.211 186.618L236.468 188.201C236.476 188.226 236.507 188.315 236.485 188.252C236.478 188.232 236.448 188.143 236.414 188.027C236.347 187.795 236.221 187.302 236.221 186.661H241.221ZM241.211 186.618L245.994 185.161C243.279 176.246 244.144 166.693 245.862 159.08C247.567 151.522 250.005 146.347 249.955 146.451L245.438 144.306L240.922 142.161C240.773 142.475 238.026 148.374 236.107 156.879C234.201 165.328 233.002 176.825 236.428 188.074L241.211 186.618ZM245.438 144.306L249.944 146.474C257.698 130.363 260.878 118.272 261.1 107.999C261.324 97.644 258.523 89.6264 255.276 81.907L250.667 83.8451L246.058 85.7833C249.119 93.0609 251.281 99.5294 251.102 107.783C250.922 116.119 248.334 126.76 240.933 142.137L245.438 144.306ZM250.667 83.8451L255.275 81.9043C253.281 77.1702 251.893 73.7867 251.503 69.2968L246.522 69.7296L241.541 70.1624C242.084 76.4122 244.1 81.1328 246.059 85.786L250.667 83.8451ZM246.522 69.7296L251.503 69.2956C250.861 61.9328 252.555 51.995 255.035 42.472C257.484 33.0696 260.545 24.6346 262.25 20.5245L257.631 18.6088L253.013 16.6931C251.142 21.2024 247.93 30.0752 245.358 39.952C242.817 49.7082 240.744 61.0212 241.541 70.1637L246.522 69.7296ZM257.631 18.6088L262.289 20.4268C263.703 16.8033 263.64 12.7706 262.114 9.19303L257.515 11.1551L252.916 13.1173C253.415 14.2874 253.436 15.6059 252.973 16.7909L257.631 18.6088ZM257.515 11.1551L262.114 9.19303C260.588 5.61554 257.72 2.77933 254.128 1.28953L252.212 5.90809L250.297 10.5267C251.477 11.0162 252.417 11.947 252.916 13.1173L257.515 11.1551ZM252.212 5.90809L254.128 1.28953C250.536 -0.200227 246.503 -0.226099 242.892 1.21741L244.748 5.86019L246.604 10.503C247.79 10.0285 249.116 10.037 250.297 10.5267L252.212 5.90809ZM244.748 5.86019L242.892 1.21741C239.28 2.66102 236.377 5.46022 234.805 9.01764L239.378 11.0388L243.951 13.0599C244.466 11.8959 245.417 10.9773 246.604 10.503L244.748 5.86019ZM239.378 11.0388L234.763 9.11541C234.238 10.3736 222.678 38.3615 221.684 62.7627L226.68 62.966L231.676 63.1694C232.588 40.7565 243.448 14.2704 243.993 12.9621L239.378 11.0388ZM226.68 62.966L225.154 58.2047C209.131 63.3411 194.621 72.3399 182.907 84.4065L186.495 87.8893L190.082 91.372C200.652 80.4839 213.746 72.3629 228.206 67.7274L226.68 62.966ZM186.495 87.8893L190.082 84.4066C178.368 72.3392 163.858 63.34 147.834 58.2037L146.308 62.9651L144.782 67.7264C159.243 72.3619 172.337 80.4832 182.907 91.3719L186.495 87.8893ZM146.308 62.9651L151.304 62.7615C150.31 38.3612 138.749 10.3782 138.225 9.12035L133.609 11.0437L128.994 12.967C129.539 14.2756 140.399 40.7567 141.312 63.1686L146.308 62.9651ZM133.609 11.0437L138.217 9.10273C136.69 5.47721 133.788 2.60533 130.148 1.11319L128.252 5.73952L126.355 10.3659C127.551 10.8561 128.502 11.7985 129.001 12.9846L133.609 11.0437ZM128.252 5.73952L130.148 1.11319C126.509 -0.378851 122.426 -0.37073 118.793 1.13579L120.708 5.75454L122.623 10.3733C123.817 9.87816 125.159 9.87549 126.355 10.3659L128.252 5.73952ZM120.708 5.75454L118.793 1.13579C115.159 2.64237 112.268 5.52572 110.755 9.15744L115.371 11.08L119.987 13.0025C120.482 11.8145 121.428 10.8684 122.623 10.3733L120.708 5.75454ZM115.371 11.08L110.755 9.15744C109.243 12.7893 109.232 16.8721 110.725 20.5118L115.351 18.6137L119.977 16.7156C119.488 15.5252 119.492 14.1904 119.987 13.0025L115.371 11.08ZM115.351 18.6137L110.733 20.5299C112.439 24.6425 115.502 33.0786 117.951 42.4815C120.431 52.005 122.125 61.9422 121.482 69.3043L126.463 69.7395L131.444 70.1747C132.243 61.0316 130.169 49.718 127.628 39.961C125.055 30.0834 121.841 21.2093 119.969 16.6976L115.351 18.6137ZM126.463 69.7395L121.481 69.3062C121.091 73.7898 119.699 77.1704 117.706 81.9208L122.317 83.855L126.928 85.7892C128.877 81.1425 130.901 76.417 131.444 70.1728L126.463 69.7395ZM122.317 83.855L117.708 81.9166C114.461 89.6361 111.66 97.6539 111.885 108.011C112.108 118.286 115.291 130.381 123.051 146.5L127.556 144.332L132.061 142.163C124.654 126.777 122.064 116.132 121.883 107.794C121.703 99.5388 123.865 93.0709 126.926 85.7935L122.317 83.855ZM127.556 144.332L123.061 146.521C122.981 146.358 125.413 151.553 127.115 159.142C128.828 166.773 129.688 176.321 126.993 185.171L131.776 186.628L136.559 188.084C139.966 176.896 138.769 165.404 136.873 156.952C134.966 148.456 132.236 142.522 132.051 142.142L127.556 144.332ZM131.776 186.628L126.994 185.168C126.957 185.287 126.93 185.39 126.911 185.466C126.892 185.538 126.878 185.601 126.872 185.626C126.863 185.666 126.866 185.652 126.868 185.643C126.872 185.627 126.883 185.582 126.901 185.519L131.714 186.872L136.528 188.224C136.557 188.121 136.578 188.035 136.592 187.978C136.599 187.949 136.605 187.924 136.608 187.908C136.61 187.899 136.612 187.891 136.613 187.886C136.615 187.88 136.616 187.877 136.616 187.873C136.62 187.858 136.615 187.879 136.607 187.911C136.598 187.946 136.582 188.009 136.558 188.088L131.776 186.628ZM131.714 186.872L126.901 185.519C126.916 185.464 126.928 185.426 126.929 185.423C126.93 185.42 126.93 185.421 126.927 185.429C126.926 185.434 126.92 185.453 126.915 185.468C126.904 185.501 126.884 185.564 126.862 185.639C126.839 185.716 126.81 185.819 126.78 185.941L131.636 187.13L136.493 188.319C136.474 188.397 136.457 188.456 136.447 188.488C136.438 188.519 136.432 188.538 136.435 188.528C136.437 188.521 136.438 188.519 136.444 188.502C136.448 188.489 136.454 188.468 136.462 188.444C136.47 188.42 136.479 188.389 136.49 188.353C136.501 188.317 136.514 188.273 136.528 188.224L131.714 186.872ZM131.636 187.13L126.783 185.929C121.509 207.229 107.185 237.26 85.7376 272.392C64.3545 307.418 36.1053 347.172 3.29581 387.842L7.18737 390.982L11.0789 394.121C44.1088 353.177 72.6222 313.067 94.2728 277.602C115.859 242.243 130.839 211.155 136.49 188.332L131.636 187.13ZM7.18737 390.982L3.29592 387.842C2.0284 389.413 1.09379 391.226 0.549688 393.17L5.36471 394.518L10.1797 395.865C10.3576 395.23 10.6634 394.636 11.0788 394.121L7.18737 390.982ZM5.36471 394.518L0.549688 393.17C0.00560708 395.115 -0.136495 397.149 0.131941 399.15L5.08754 398.485L10.0431 397.82C9.95537 397.166 10.0018 396.501 10.1797 395.865L5.36471 394.518ZM5.08754 398.485L0.131941 399.15C0.400401 401.151 1.07387 403.076 2.11087 404.808L6.40077 402.24L10.6907 399.672C10.3511 399.104 10.1309 398.475 10.0431 397.82L5.08754 398.485ZM6.40077 402.24L2.11087 404.808C3.14799 406.541 4.52701 408.043 6.16333 409.225L9.09124 405.172L12.0191 401.119C11.482 400.731 11.0301 400.238 10.6907 399.672L6.40077 402.24ZM9.09124 405.172L6.15849 409.222C7.56745 410.242 37.288 431.518 78.9882 446.28L80.6567 441.567L82.3252 436.853C41.9049 422.545 13.0684 401.879 12.024 401.123L9.09124 405.172ZM80.6567 441.567L78.9885 446.28C104.758 455.401 129.559 460.001 152.853 460L152.853 455L152.853 450C130.871 450.001 107.202 445.658 82.3249 436.853L80.6567 441.567ZM152.853 455V460C180.569 460 206.113 453.481 228.465 440.379L225.937 436.065L223.408 431.752C202.732 443.872 178.964 450 152.853 450V455ZM225.937 436.065L228.537 440.336L228.547 440.33L225.947 436.06L223.347 431.789L223.337 431.795L225.937 436.065ZM225.947 436.06V441.06H225.956V436.06V431.06H225.947V436.06ZM225.956 436.06L228.493 440.368C296.525 400.296 355.169 411.757 355.076 411.738L356.088 406.841L357.1 401.945C355.861 401.689 294.39 389.947 223.418 431.751L225.956 436.06ZM356.088 406.841L355.064 411.736C358.067 412.364 361.192 412.05 364.01 410.835L362.031 406.244L360.053 401.652C359.127 402.051 358.1 402.154 357.112 401.947L356.088 406.841ZM362.031 406.244L364.01 410.835C366.827 409.621 369.202 407.566 370.806 404.951L366.544 402.336L362.282 399.722C361.757 400.578 360.978 401.253 360.053 401.652L362.031 406.244ZM366.544 402.336L370.806 404.951C372.411 402.335 373.167 399.287 372.969 396.225L367.98 396.546L362.99 396.868C363.054 397.868 362.808 398.865 362.282 399.722L366.544 402.336ZM367.98 396.546L372.969 396.225C372.772 393.162 371.631 390.236 369.704 387.848L365.813 390.988L361.921 394.127C362.553 394.91 362.925 395.867 362.99 396.868L367.98 396.546ZM365.813 390.988L370.739 390.136L370.737 390.12L365.81 390.972L360.883 391.824L360.886 391.84L365.813 390.988ZM215.928 419.03L213.4 414.716C180.247 434.148 138.739 435.763 89.3761 418.393L87.7165 423.11L86.0568 427.826C137.245 445.838 182.01 444.705 218.457 423.344L215.928 419.03ZM87.7165 423.11L89.4018 418.402C69.3325 411.217 50.0905 401.909 32.0046 390.636L29.3597 394.879L26.7149 399.122C45.4058 410.772 65.2911 420.392 86.0311 427.817L87.7165 423.11ZM29.3597 394.879L33.2749 397.989C65.8116 357.026 93.449 317.595 114.407 282.591C135.317 247.668 149.755 216.861 155.637 193.203L150.785 191.997L145.933 190.79C140.407 213.016 126.563 242.822 105.828 277.454C85.1408 312.005 57.7696 351.073 25.4445 391.769L29.3597 394.879ZM150.785 191.997L155.577 193.424C160.008 178.55 158.657 163.846 156.24 152.899C153.817 141.92 150.243 134.362 149.861 133.573L145.36 135.751L140.86 137.929C141.033 138.287 144.274 145.082 146.475 155.054C148.683 165.058 149.766 177.903 145.993 190.569L150.785 191.997ZM145.36 135.751L149.866 133.582C143.737 120.851 141.798 113.082 141.647 107.566C141.501 102.21 143.001 98.5321 145.149 93.4251L140.54 91.4863L135.932 89.5475C133.785 94.65 131.44 100.112 131.651 107.839C131.857 115.407 134.475 124.665 140.855 137.919L145.36 135.751ZM140.54 91.4863L145.149 93.4248C146.242 90.8277 147.482 87.8642 148.554 84.5262L143.794 82.9972L139.033 81.4683C138.11 84.341 137.03 86.937 135.931 89.5478L140.54 91.4863ZM143.794 82.9972L142.032 87.6766C154.974 92.5491 166.271 100.977 174.62 111.986L178.604 108.965L182.588 105.944C173.099 93.431 160.26 83.8543 145.555 78.3179L143.794 82.9972ZM178.604 108.965L174.613 111.978C176 113.815 177.795 115.304 179.856 116.33L182.083 111.854L184.311 107.377C183.635 107.041 183.048 106.553 182.594 105.952L178.604 108.965ZM182.083 111.854L179.856 116.33C181.916 117.355 184.187 117.889 186.488 117.889V112.889V107.889C185.732 107.889 184.987 107.714 184.311 107.377L182.083 111.854ZM186.488 112.889V117.889C188.79 117.889 191.06 117.355 193.121 116.33L190.893 111.854L188.665 107.377C187.989 107.714 187.244 107.889 186.488 107.889V112.889ZM190.893 111.854L193.121 116.33C195.181 115.304 196.976 113.815 198.363 111.978L194.373 108.965L190.383 105.952C189.929 106.553 189.341 107.041 188.665 107.377L190.893 111.854ZM194.373 108.965L198.357 111.986C206.706 100.977 218.003 92.5484 230.946 87.6756L229.184 82.9962L227.422 78.3169C212.717 83.8535 199.878 93.4306 190.389 105.944L194.373 108.965ZM229.184 82.9962L224.423 84.5239C225.495 87.8657 226.736 90.8288 227.827 93.4236L232.436 91.4853L237.045 89.547C235.948 86.9378 234.867 84.3436 233.945 81.4686L229.184 82.9962ZM232.436 91.4853L227.827 93.4238C229.976 98.5334 231.476 102.212 231.331 107.566C231.181 113.079 229.244 120.842 223.12 133.564L227.625 135.733L232.13 137.902C238.506 124.656 241.122 115.403 241.327 107.837C241.536 100.112 239.192 94.6507 237.045 89.5467L232.436 91.4853ZM227.625 135.733L223.123 133.557C222.738 134.354 219.131 141.979 216.704 153.039C214.285 164.067 212.96 178.87 217.511 193.814L222.294 192.357L227.077 190.9C223.204 178.183 224.261 165.259 226.472 155.182C228.676 145.138 231.947 138.281 232.127 137.909L227.625 135.733ZM222.294 192.357L217.559 193.962L217.578 194.017L222.313 192.412L227.048 190.807L227.03 190.752L222.294 192.357ZM222.313 192.412L217.465 193.635C228.866 238.853 271.513 310.664 332.2 388.447L336.142 385.371L340.084 382.295C279.473 304.61 238.01 234.217 227.161 191.19L222.313 192.412ZM336.142 385.371L336.202 380.371C309.393 380.049 263.768 385.05 213.391 414.722L215.928 419.03L218.466 423.338C266.925 394.797 310.652 390.065 336.082 390.371L336.142 385.371ZM215.899 419.03L213.37 414.716C180.217 434.148 138.709 435.763 89.3463 418.393L87.6867 423.11L86.0271 427.826C137.216 445.838 181.98 444.705 218.427 423.344L215.899 419.03ZM87.6867 423.11L89.372 418.402C69.3028 411.217 50.0608 401.909 31.9748 390.636L29.33 394.879L26.6852 399.122C45.376 410.772 65.2613 420.392 86.0013 427.817L87.6867 423.11ZM29.33 394.879L33.2452 397.989C65.7819 357.026 93.4193 317.595 114.378 282.591C135.287 247.668 149.725 216.861 155.608 193.203L150.755 191.997L145.903 190.79C140.377 213.016 126.533 242.822 105.798 277.454C85.111 312.005 57.7398 351.073 25.4148 391.769L29.33 394.879ZM150.755 191.997L155.547 193.424C159.978 178.55 158.627 163.846 156.21 152.899C153.787 141.92 150.213 134.362 149.831 133.573L145.331 135.751L140.83 137.929C141.003 138.287 144.244 145.082 146.445 155.054C148.653 165.058 149.737 177.903 145.963 190.569L150.755 191.997ZM145.331 135.751L149.836 133.582C143.707 120.851 141.768 113.082 141.618 107.566C141.472 102.21 142.971 98.5321 145.119 93.4251L140.511 91.4863L135.902 89.5475C133.755 94.65 131.411 100.112 131.621 107.839C131.828 115.407 134.445 124.665 140.825 137.919L145.331 135.751ZM140.511 91.4863L145.12 93.4248C146.212 90.8277 147.452 87.8642 148.524 84.5262L143.764 82.9972L139.003 81.4683C138.081 84.341 137 86.937 135.902 89.5478L140.511 91.4863ZM143.764 82.9972L142.002 87.6766C154.944 92.5491 166.241 100.977 174.59 111.986L178.574 108.965L182.558 105.944C173.069 93.431 160.231 83.8543 145.526 78.3179L143.764 82.9972ZM178.574 108.965L174.584 111.978C175.971 113.815 177.765 115.304 179.826 116.33L182.054 111.854L184.281 107.377C183.606 107.041 183.018 106.553 182.564 105.952L178.574 108.965ZM182.054 111.854L179.826 116.33C181.886 117.355 184.157 117.889 186.458 117.889V112.889V107.889C185.703 107.889 184.957 107.714 184.281 107.377L182.054 111.854ZM186.458 112.889V117.889C188.76 117.889 191.03 117.355 193.091 116.33L190.863 111.854L188.635 107.377C187.96 107.714 187.214 107.889 186.458 107.889V112.889ZM190.863 111.854L193.091 116.33C195.152 115.304 196.946 113.815 198.333 111.978L194.343 108.965L190.353 105.952C189.899 106.553 189.311 107.041 188.635 107.377L190.863 111.854ZM194.343 108.965L198.327 111.986C206.676 100.977 217.974 92.5484 230.916 87.6756L229.154 82.9962L227.392 78.3169C212.687 83.8535 199.848 93.4306 190.359 105.944L194.343 108.965ZM229.154 82.9962L224.393 84.5238C225.466 87.8657 226.706 90.8288 227.797 93.4236L232.406 91.4853L237.015 89.547C235.918 86.9378 234.838 84.3436 233.915 81.4686L229.154 82.9962ZM232.406 91.4853L227.797 93.4238C229.946 98.5334 231.446 102.212 231.301 107.566C231.151 113.079 229.214 120.842 223.09 133.564L227.595 135.733L232.101 137.902C238.476 124.656 241.092 115.403 241.297 107.837C241.507 100.112 239.162 94.6507 237.015 89.5467L232.406 91.4853ZM227.595 135.733L223.094 133.557C222.708 134.354 219.101 141.979 216.675 153.039C214.255 164.067 212.93 178.87 217.481 193.814L222.264 192.357L227.048 190.9C223.174 178.183 224.232 165.259 226.442 155.182C228.646 145.138 231.917 138.281 232.097 137.909L227.595 135.733ZM222.264 192.357L217.529 193.962L217.548 194.017L222.283 192.412L227.019 190.807L227 190.752L222.264 192.357ZM222.283 192.412L217.435 193.635C228.836 238.853 271.484 310.664 332.17 388.447L336.112 385.371L340.054 382.295C279.443 304.61 237.98 234.217 227.131 191.19L222.283 192.412ZM336.112 385.371L336.172 380.371C309.363 380.049 263.738 385.05 213.361 414.722L215.899 419.03L218.436 423.338C266.895 394.797 310.622 390.065 336.052 390.371L336.112 385.371Z" fill="#FFBAE1" fill-opacity="0.49" mask="url(#path-1-outside-1_233_18)"/>
</svg>
