<svg width="3017" height="564" viewBox="0 0 3017 564" fill="none" xmlns="http://www.w3.org/2000/svg">
<path d="M3014.26 483.751C2931.91 381.459 2872.26 283.559 2858.6 228.259C2858.55 228.062 2858.48 227.874 2858.43 227.682C2858.43 227.664 2858.42 227.646 2858.41 227.628C2850.73 202.355 2863.58 174.86 2863.7 174.597C2882.66 135.131 2878.13 117.615 2870.24 98.8192C2867.77 92.9365 2865.64 87.858 2865.06 81.1278C2863.26 60.4412 2874.48 27.8593 2878.95 17.0564C2880.12 14.0431 2880.07 10.6897 2878.81 7.71444C2877.54 4.73916 2875.16 2.37854 2872.17 1.13814C2869.19 -0.102261 2865.84 -0.123814 2862.84 1.0781C2859.84 2.28001 2857.43 4.60982 2856.12 7.56857C2855.45 9.17688 2841.43 43.3139 2840.24 72.6508C2821.17 78.7745 2803.91 89.5029 2789.97 103.888C2776.04 89.502 2758.77 78.7731 2739.71 72.6495C2738.52 43.3139 2724.49 9.18307 2723.82 7.57475C2722.56 4.55943 2720.15 2.16918 2717.12 0.926867C2714.1 -0.315443 2710.71 -0.308676 2707.69 0.945688C2704.67 2.20005 2702.27 4.5999 2701.01 7.62026C2699.76 10.6406 2699.75 14.0356 2700.99 17.0626C2705.46 27.8717 2716.69 60.4536 2714.89 81.1402C2714.3 87.8629 2712.17 92.9427 2709.7 98.8316C2701.81 117.628 2697.28 135.142 2716.25 174.629C2716.39 174.901 2729.16 202.526 2721.53 227.64C2721.5 227.742 2721.48 227.844 2721.45 227.946C2721.43 228.047 2721.38 228.158 2721.36 228.27C2707.69 283.571 2648.05 381.474 2565.7 483.764C2564.64 485.071 2563.87 486.579 2563.42 488.196C2562.97 489.813 2562.85 491.504 2563.07 493.168C2563.29 494.832 2563.85 496.433 2564.71 497.874C2565.57 499.315 2566.72 500.565 2568.08 501.549C2569.61 502.663 2606.23 528.946 2657.59 547.163C2689.27 558.397 2719.58 564.001 2747.89 564C2781.56 564 2812.4 556.075 2839.31 540.269L2839.32 540.261H2839.33C2926.26 488.952 3001.38 503.493 3002.1 503.641C3004.6 504.165 3007.19 503.903 3009.53 502.892C3011.88 501.881 3013.85 500.171 3015.18 497.995C3016.51 495.819 3017.14 493.284 3016.97 490.738C3016.81 488.192 3015.86 485.758 3014.26 483.771L3014.26 483.751ZM2826.79 518.918C2783.26 544.481 2729.31 546.203 2666.42 524.031C2640.9 514.875 2616.43 503.013 2593.43 488.648C2674.56 386.303 2731.04 291.877 2745.31 234.369C2755.57 199.852 2739.22 165.313 2738.52 163.874C2722.88 131.306 2727.12 121.192 2732.49 108.396C2733.86 105.132 2735.32 101.649 2736.56 97.7565C2753.85 104.279 2768.95 115.562 2780.1 130.303C2781.25 131.83 2782.74 133.07 2784.46 133.923C2786.17 134.777 2788.05 135.221 2789.97 135.221C2791.88 135.221 2793.76 134.777 2795.48 133.923C2797.19 133.07 2798.68 131.83 2799.83 130.303C2810.98 115.562 2826.08 104.279 2843.37 97.7553C2844.62 101.651 2846.07 105.134 2847.44 108.395C2852.81 121.196 2857.05 131.306 2841.42 163.852C2840.71 165.318 2824.21 200.153 2834.75 234.821L2834.78 234.89C2848.69 290.191 2901.29 379.305 2977.15 476.732C2944.48 476.338 2888.6 482.438 2826.79 518.918Z" fill="#FF00C8"/>
<path d="M249.742 562.435C244.005 562.435 239.311 560.871 235.661 557.742C232.01 554.613 228.881 550.18 226.273 544.444L1.76012 21.9029C0.195569 17.2095 -0.325948 13.559 0.195569 10.9515C1.2386 7.82248 3.06391 5.47575 5.6715 3.91128C8.8006 2.34677 12.1905 1.56452 15.8411 1.56452C20.5347 1.56452 24.1854 2.86826 26.7929 5.47575C29.4005 7.56175 31.7474 10.6907 33.8334 14.8627L259.129 538.968H241.137L465.65 14.8627C467.736 10.6907 470.083 7.56175 472.69 5.47575C475.819 2.86826 479.731 1.56452 484.424 1.56452C488.596 1.56452 491.726 2.60752 493.812 4.69351C496.419 6.25799 497.984 8.60473 498.505 11.7337C499.027 14.3412 498.505 17.7309 496.941 21.9029L272.428 544.444C270.341 550.18 267.473 554.613 263.823 557.742C260.172 560.871 255.478 562.435 249.742 562.435Z" fill="black"/>
<path d="M604.889 557.742C598.63 557.742 593.676 556.178 590.025 553.049C586.896 549.398 585.332 544.444 585.332 538.186V25.8142C585.332 19.5562 586.896 14.8627 590.025 11.7337C593.676 8.08324 598.63 6.25799 604.889 6.25799H905.283C910.498 6.25799 914.409 7.56173 917.017 10.1692C920.146 12.7767 921.71 16.4272 921.71 21.1207C921.71 26.3356 920.146 30.2469 917.017 32.8544C914.409 35.4619 910.498 36.7656 905.283 36.7656H618.187V262.835H889.637C894.852 262.835 898.764 264.139 901.371 266.746C904.5 269.354 906.065 273.004 906.065 277.698C906.065 282.913 904.5 286.824 901.371 289.431C898.764 292.039 894.852 293.343 889.637 293.343H618.187V527.234H905.283C910.498 527.234 914.409 528.538 917.017 531.146C920.146 533.753 921.71 537.404 921.71 542.097C921.71 547.312 920.146 551.223 917.017 553.831C914.409 556.438 910.498 557.742 905.283 557.742H604.889Z" fill="black"/>
<path d="M1191.24 564C1165.17 564 1140.39 561.653 1116.92 556.96C1093.46 552.266 1071.55 545.487 1051.21 536.621C1031.4 527.756 1013.4 516.804 997.237 503.767C993.586 500.638 990.978 497.248 989.414 493.598C988.371 489.947 988.371 486.558 989.414 483.429C990.978 479.778 993.065 476.91 995.672 474.824C998.28 472.738 1001.41 471.695 1005.06 471.695C1008.71 471.695 1012.36 473.259 1016.01 476.388C1040.52 495.684 1066.34 509.764 1093.46 518.63C1121.1 527.495 1153.69 531.928 1191.24 531.928C1243.39 531.928 1282.51 521.498 1308.58 500.638C1335.18 479.778 1348.48 452.139 1348.48 417.72C1348.48 389.559 1338.83 367.656 1319.53 352.011C1300.24 335.845 1268.69 323.329 1224.88 314.463L1147.43 298.818C1098.41 288.91 1061.9 272.483 1037.91 249.537C1013.93 226.591 1001.93 195.562 1001.93 156.449C1001.93 132.982 1006.36 111.861 1015.23 93.0874C1024.62 73.792 1037.65 57.3648 1054.34 43.8059C1071.03 29.7254 1090.85 19.0347 1113.8 11.7337C1136.74 3.91125 1162.04 0 1189.68 0C1224.1 0 1255.65 5.21499 1284.33 15.645C1313.02 25.5534 1339.09 41.1984 1362.56 62.5798C1366.21 65.7088 1368.56 69.3592 1369.6 73.5312C1370.64 77.1817 1370.38 80.8322 1368.82 84.4827C1367.77 87.6117 1365.95 90.2191 1363.34 92.3051C1361.26 93.8696 1358.39 94.6519 1354.74 94.6519C1351.09 94.6519 1347.44 92.8266 1343.78 89.1761C1321.36 69.3592 1297.63 55.018 1272.6 46.1526C1247.56 36.7656 1219.92 32.0721 1189.68 32.0721C1158.91 32.0721 1132.05 37.2871 1109.1 47.7171C1086.16 57.6256 1068.16 71.9667 1055.12 90.7407C1042.61 109.515 1036.35 131.417 1036.35 156.449C1036.35 186.696 1045.22 210.685 1062.95 228.416C1080.68 245.626 1109.36 258.141 1149 265.964L1226.44 281.609C1279.64 292.56 1319.01 308.727 1344.57 330.108C1370.12 350.968 1382.9 379.911 1382.9 416.938C1382.9 438.84 1378.47 458.918 1369.6 477.171C1360.73 494.901 1347.96 510.286 1331.27 523.323C1315.1 536.361 1295.02 546.53 1271.03 553.831C1247.56 560.61 1220.97 564 1191.24 564Z" fill="black"/>
<path d="M1635.54 562.435C1630.33 562.435 1626.16 560.871 1623.03 557.742C1620.42 554.613 1619.12 550.441 1619.12 545.226V36.7656H1421.2C1415.98 36.7656 1411.81 35.4619 1408.68 32.8544C1405.55 29.7254 1403.99 25.8142 1403.99 21.1207C1403.99 16.4272 1405.55 12.7767 1408.68 10.1692C1411.81 7.56173 1415.98 6.25799 1421.2 6.25799H1849.89C1855.62 6.25799 1859.8 7.56173 1862.4 10.1692C1865.53 12.7767 1867.1 16.4272 1867.1 21.1207C1867.1 26.3356 1865.53 30.2469 1862.4 32.8544C1859.8 35.4619 1855.62 36.7656 1849.89 36.7656H1651.97V545.226C1651.97 550.441 1650.67 554.613 1648.06 557.742C1645.45 560.871 1641.28 562.435 1635.54 562.435Z" fill="black"/>
<path d="M1956.23 562.435C1951.01 562.435 1946.84 560.871 1943.71 557.742C1941.1 554.613 1939.8 550.441 1939.8 545.226V18.774C1939.8 13.0375 1941.1 8.86547 1943.71 6.25799C1946.84 3.12901 1951.01 1.56452 1956.23 1.56452C1961.44 1.56452 1965.35 3.12901 1967.96 6.25799C1971.09 8.86547 1972.66 13.0375 1972.66 18.774V545.226C1972.66 550.441 1971.35 554.613 1968.74 557.742C1966.14 560.871 1961.96 562.435 1956.23 562.435Z" fill="black"/>
<path d="M2142.7 557.742C2136.44 557.742 2131.49 556.178 2127.84 553.049C2124.71 549.398 2123.15 544.444 2123.15 538.186V25.8142C2123.15 19.5562 2124.71 14.8627 2127.84 11.7337C2131.49 8.08324 2136.44 6.25799 2142.7 6.25799H2292.9C2379.47 6.25799 2445.96 29.7254 2492.38 76.6602C2539.32 123.074 2562.78 191.39 2562.78 281.609C2562.78 326.458 2556.79 366.092 2544.79 400.51C2532.8 434.929 2515.33 463.872 2492.38 487.34C2469.43 510.286 2441.27 527.756 2407.89 539.75C2374.52 551.745 2336.19 557.742 2292.9 557.742H2142.7ZM2156 527.234H2289.77C2329.41 527.234 2364.09 522.019 2393.81 511.589C2423.54 501.159 2448.31 485.775 2468.13 465.437C2487.95 445.098 2502.81 419.545 2512.72 388.777C2522.63 358.008 2527.58 322.286 2527.58 281.609C2527.58 200.255 2507.76 139.24 2468.13 98.5631C2428.49 57.3648 2369.04 36.7656 2289.77 36.7656H2156V527.234Z" fill="black"/>
</svg>
